Based on a true story, a group of allied escape artist type prisoners of war are all put in an 'escape proof' camp. Their leader decides to try to take out several hundred all at once. The first half of the film is played for comedy as the prisoners mostly outwit their jailers to dig the escape tunnel. The second half is high adventure as they use boats and trains and planes to get out of occupied Europe.

Director: John Sturges
Writers: Paul Brickhill (book), James Clavell (screenplay)
Stars: Steve McQueen, James Garner and Richard Attenborough

IMDb Top 250 | Nominated for Oscar. Another 3 wins & 4 nominations
 
http://www.imdb.com/title/tt0057115/


General
ID : 1 (0x1)
Complete name : C:\Users\M1k3L\Desktop\The Great Escape (1963) 1080i HDTV DD2.0 MPEG2-TrollHD.ts
Format : MPEG-TS
File size : 12.4 GiB
Duration : 2h 52mn
Overall bit rate : 10.3 Mbps

Video
ID : 546 (0x222)
Menu ID : 1 (0x1)
Format : MPEG Video
Format version : Version 2
Format profile : Main@High
Format settings, BVOP : Yes
Format settings, Matrix : Default
Codec ID : 2
Duration : 2h 52mn
Bit rate mode : Variable
Bit rate : 9 429 Kbps
Nominal bit rate : 18.0 Mbps
Width : 1 920 pixels
Height : 1 080 pixels
Display aspect ratio : 16:9
Frame rate : 29.970 fps
Color space : YUV
Chroma subsampling : 4:2:0
Bit depth : 8 bits
Compression mode : Lossy
Bits/(Pixel*Frame) : 0.152
Stream size : 11.3 GiB (91%)

Audio
ID : 544 (0x220)
Menu ID : 1 (0x1)
Format : AC-3
Format/Info : Audio Coding 3
Mode extension : CM (complete main)
Codec ID : 129
Duration : 2h 52mn
Bit rate mode : Constant
Bit rate : 384 Kbps
Channel(s) : 2 channels
Channel positions : Front: L R
Sampling rate : 48.0 KHz
Bit depth : 16 bits
Compression mode : Lossy
Delay relative to video : -3ms
Stream size : 473 MiB (4%)
Language : English
